HIERARCHY
ROOT SimulationBone
{
	OFFSET 0.000000 0.000000 0.000000
	CHANNELS 6 Xposition Yposition Zposition Zrotation Yrotation Xrotation 
	JOINT Hips
	{
		OFFSET 0.000000 0.000000 0.000000
		CHANNELS 6 Xposition Yposition Zposition Zrotation Yrotation Xrotation 
		JOINT LeftUpLeg
		{
			OFFSET 0.103458 1.857831 10.548500
			CHANNELS 3 Zrotation Yrotation Xrotation
			JOINT LeftLeg
			{
				OFFSET 43.500000 -0.000027 -0.000013
				CHANNELS 3 Zrotation Yrotation Xrotation
				JOINT LeftFoot
				{
					OFFSET 42.372196 0.000031 0.000011
					CHANNELS 3 Zrotation Yrotation Xrotation
					JOINT LeftToe
					{
						OFFSET 17.299994 -0.000003 -0.000004
						CHANNELS 3 Zrotation Yrotation Xrotation
						End Site
						{
							OFFSET 0.000000 0.000000 0.000000
						}
					}
				}
			}
		}
		JOINT RightUpLeg
		{
			OFFSET 0.103455 1.857826 -10.548502
			CHANNELS 3 Zrotation Yrotation Xrotation
			JOINT RightLeg
			{
				OFFSET 43.500038 -0.000023 0.000010
				CHANNELS 3 Zrotation Yrotation Xrotation
				JOINT RightFoot
				{
					OFFSET 42.372261 0.000004 0.000006
					CHANNELS 3 Zrotation Yrotation Xrotation
					JOINT RightToe
					{
						OFFSET 17.299988 -0.000008 0.000010
						CHANNELS 3 Zrotation Yrotation Xrotation
						End Site
						{
							OFFSET 0.000000 0.000000 0.000000
						}
					}
				}
			}
		}
		JOINT Spine
		{
			OFFSET 6.901968 -2.603722 -0.000004
			CHANNELS 3 Zrotation Yrotation Xrotation
			JOINT Spine1
			{
				OFFSET 12.588099 -0.000002 0.000005
				CHANNELS 3 Zrotation Yrotation Xrotation
				JOINT Spine2
				{
					OFFSET 12.343202 -0.000017 -0.000005
					CHANNELS 3 Zrotation Yrotation Xrotation
					JOINT Neck
					{
						OFFSET 25.832903 0.000008 0.000008
						CHANNELS 3 Zrotation Yrotation Xrotation
						JOINT Head
						{
							OFFSET 11.766607 0.000004 -0.000001
							CHANNELS 3 Zrotation Yrotation Xrotation
							End Site
							{
								OFFSET 0.000000 0.000000 0.000000
							}
						}
					}
					JOINT LeftShoulder
					{
						OFFSET 19.745907 -1.480366 6.000107
						CHANNELS 3 Zrotation Yrotation Xrotation
						JOINT LeftArm
						{
							OFFSET 11.284126 -0.000031 -0.000025
							CHANNELS 3 Zrotation Yrotation Xrotation
							JOINT LeftForeArm
							{
								OFFSET 33.000050 0.000011 0.000029
								CHANNELS 3 Zrotation Yrotation Xrotation
								JOINT LeftHand
								{
									OFFSET 25.200008 0.000009 0.000011
									CHANNELS 3 Zrotation Yrotation Xrotation
									End Site
									{
										OFFSET 0.000000 0.000000 0.000000
									}
								}
							}
						}
					}
					JOINT RightShoulder
					{
						OFFSET 19.746094 -1.480364 -6.000070
						CHANNELS 3 Zrotation Yrotation Xrotation
						JOINT RightArm
						{
							OFFSET 11.284145 -0.000017 -0.000020
							CHANNELS 3 Zrotation Yrotation Xrotation
							JOINT RightForeArm
							{
								OFFSET 33.000088 0.000019 0.000022
								CHANNELS 3 Zrotation Yrotation Xrotation
								JOINT RightHand
								{
									OFFSET 25.199780 0.000137 0.000414
									CHANNELS 3 Zrotation Yrotation Xrotation
									End Site
									{
										OFFSET 0.000000 0.000000 0.000000
									}
								}
							}
						}
					}
				}
			}
		}
	}
}
MOTION
Frames: 10
Frame Time: 0.033333
5.432667 0.000000 -636.887618 0.000000 -20.862392 0.000000 -3.843339 91.442497 -1.074757 88.957519 -2.618999 170.907198 178.096076 -1.115097 173.866960 -20.934362 -4.578378 -14.345269 87.486513 8.704448 -7.746486 21.454555 0.003109 0.000017 155.730198 5.811492 -179.360754 -23.806105 2.205297 -5.284371 80.563864 6.134909 10.006072 21.454551 -0.003089 -0.000001 9.077327 -1.091749 -0.347075 8.150506 -2.156304 -0.770221 7.832193 -2.161052 -0.757183 2.925153 4.505899 -10.198789 -6.289804 10.739177 -11.930667 140.334515 -73.347892 39.261679 -0.087031 41.151685 18.506281 -56.638507 -20.803312 2.402169 8.729173 -11.148892 22.566897 176.182298 73.345843 -2.574655 -29.942750 -52.507913 -10.552953 -33.389397 20.937093 -1.681408 23.009154 18.027600 23.561269 
4.778028 0.000000 -637.926348 0.000000 -24.487495 0.000000 -4.012689 91.512833 -0.895035 88.919402 -2.127101 170.938435 177.804591 -1.003298 172.727780 -21.057041 -4.748512 -15.689470 87.654864 9.655678 -7.635524 21.454557 0.003108 0.000017 155.651747 4.883692 -179.858524 -25.095665 1.871832 0.559076 81.431592 2.025812 10.753121 21.454553 -0.003092 -0.000001 9.096538 -1.083742 -0.354791 8.189013 -2.139624 -0.785432 7.870698 -2.144457 -0.772503 3.031454 3.564846 -9.954224 -6.719891 11.109952 -12.073336 141.842156 -73.285068 37.732724 -0.581000 39.687033 13.219842 -56.934200 -20.885791 2.418814 9.065076 -12.402261 22.505639 176.662611 73.030193 -2.089785 -26.661189 -50.501613 -15.800654 -29.366258 18.998996 -1.473092 21.463465 15.091656 19.107459 
4.115447 0.000000 -638.742681 0.000000 -28.017130 0.000000 -4.112834 91.755020 -0.697041 88.930146 -1.317740 171.654702 177.652879 -1.115497 171.753399 -20.881580 -4.292956 -16.784491 87.285617 10.359890 -7.796285 21.454557 0.003108 0.000017 155.568487 4.378096 -179.878578 -27.502518 1.895228 5.816228 80.888195 -1.538565 11.397962 21.454551 -0.003080 -0.000001 9.143526 -0.928978 -0.446155 8.282891 -1.823603 -0.957685 7.964667 -1.829489 -0.946665 2.621200 3.059551 -9.671355 -6.638271 11.040359 -11.865397 142.340719 -73.369189 37.218903 -1.116565 39.277307 8.097905 -57.484723 -21.025545 2.448984 10.820538 -13.355304 22.269699 177.758801 72.742792 -0.970582 -23.255092 -48.707981 -21.137487 -26.542875 17.626939 -1.334404 17.993445 12.605001 10.272758 
3.430689 0.000000 -639.341117 0.000000 -31.454919 0.000000 -4.080513 91.878311 -0.556101 89.076199 -0.838508 172.650035 177.577064 -0.998395 170.994592 -20.823425 -3.808140 -17.843396 86.944210 11.013251 -8.076831 21.454560 0.003108 0.000017 155.512998 4.872407 -177.873740 -30.662276 1.533096 7.954291 81.120128 -3.561123 9.212159 21.454553 -0.003092 0.000000 9.172861 -0.799562 -0.593084 8.342079 -1.554268 -1.242306 8.023936 -1.561881 -1.232902 2.379160 2.812862 -9.406435 -6.699710 10.629787 -11.548314 142.240493 -73.487877 37.311814 -1.033299 39.419983 4.119702 -58.061328 -21.147509 2.479109 10.612878 -13.342050 22.257121 178.844310 72.743195 0.145553 -19.600789 -47.469207 -26.745877 -25.469977 17.249409 -1.292576 16.476938 10.280920 5.281597 
2.725744 0.000000 -639.736792 0.000000 -34.808494 0.000000 -3.939832 91.914818 -0.446604 89.351598 -0.583389 173.641371 177.895897 -0.885190 170.538240 -20.423411 -3.674954 -18.978809 86.660013 11.733531 -8.300227 21.454555 0.003108 0.000017 155.623196 5.743193 -175.023502 -34.076975 0.508158 8.544292 81.937497 -4.190345 8.387652 21.454553 -0.003098 -0.000001 9.180633 -0.705224 -0.709581 8.357732 -1.357349 -1.468277 8.039635 -1.366318 -1.460056 2.343605 2.798807 -9.162262 -6.898560 10.041450 -11.170771 141.703694 -73.501804 37.856894 -0.494307 39.805403 1.678814 -59.372738 -21.251111 2.536270 11.257429 -13.527173 21.535752 179.987902 72.547633 1.317442 -15.744559 -46.298038 -31.568414 -25.345285 16.755299 -1.259207 17.311654 9.382248 4.299919 
1.998106 0.000000 -639.951245 0.000000 -38.087591 0.000000 -3.730519 91.916977 -0.316664 89.668978 -0.280099 174.648132 178.317620 -0.979799 169.830659 -20.129411 -3.427828 -19.903161 86.468542 12.287161 -8.679056 21.454558 0.003109 0.000017 156.109738 6.502387 -172.412594 -37.008875 -0.586109 8.472064 82.940066 -4.247872 8.029856 21.454557 -0.003079 0.000002 9.178610 -0.582630 -0.786403 8.352589 -1.106989 -1.612806 8.034552 -1.116837 -1.606106 2.086468 2.575211 -9.009352 -6.867879 9.705790 -10.969690 141.933448 -73.514508 37.622290 -0.272807 40.192211 0.208315 -60.770693 -21.085853 2.578924 10.624731 -13.941130 21.793822 -178.028088 72.554989 3.358733 -12.241207 -45.653343 -36.122255 -25.358715 16.602062 -1.249693 17.373513 9.420286 5.700621 
1.259994 0.000000 -639.962786 0.000000 -41.305377 0.000000 -3.519911 91.904037 -0.219635 89.847702 0.012723 175.928305 178.446560 -1.346896 169.001338 -20.299109 -3.259104 -20.518100 86.431365 12.631431 -9.136460 21.454560 0.003108 0.000017 156.884213 7.215192 -170.666032 -39.239853 -1.115596 8.829468 83.677693 -4.670999 7.283382 21.454555 -0.003086 0.000000 9.124101 -0.445717 -0.874770 8.242021 -0.828022 -1.779046 7.924052 -0.838882 -1.774019 1.728724 2.380990 -8.962409 -6.633898 9.507529 -10.879798 142.576114 -73.608484 36.961220 -0.273338 40.671669 -0.409629 -62.350434 -20.570800 2.605090 9.900655 -13.784987 22.705190 -175.587088 72.384897 5.868336 -8.959455 -45.422554 -39.079341 -25.550512 16.483941 -1.245291 17.448488 10.122753 7.442426 
0.509699 0.000000 -639.816058 0.000000 -44.476906 0.000000 -3.311619 91.846123 -0.214676 89.819867 -0.080713 177.260973 178.338944 -1.442203 168.192083 -20.605422 -3.128992 -21.076068 86.318128 12.919399 -9.696930 21.454562 0.003108 0.000017 157.485570 8.120099 -170.137758 -41.207358 -0.824669 9.393297 84.765660 -5.248969 6.619657 21.454553 -0.003097 -0.000001 9.006380 -0.401026 -0.924182 8.006110 -0.737197 -1.873866 7.688191 -0.748637 -1.869390 1.387015 2.526901 -9.115874 -6.493068 9.252531 -10.898536 142.960190 -73.718450 36.562030 -0.459300 41.188909 0.249310 -63.717407 -20.297676 2.640509 9.782366 -13.361291 22.905166 -173.816812 72.002823 7.686751 -5.672265 -45.919037 -40.445686 -25.115692 16.542339 -1.242017 17.494464 10.858072 9.082131 
-0.244136 0.000000 -639.503871 0.000000 -47.622949 0.000000 -3.089673 91.822449 -0.276233 89.825398 -0.222206 178.466412 178.502623 -1.578796 167.487372 -20.676507 -3.173844 -21.711189 86.046914 13.252450 -10.314870 21.454553 0.003108 0.000017 158.443532 8.747603 -168.635854 -42.209538 -0.571915 10.061269 85.492296 -6.116275 4.530016 21.454550 -0.003099 0.000000 8.918448 -0.369619 -0.913086 7.829663 -0.676660 -1.849060 7.511728 -0.687951 -1.844939 0.980513 2.583885 -9.369147 -6.508279 9.117430 -11.084421 142.733291 -73.645668 36.798331 -0.491544 41.829164 1.410910 -64.861997 -19.688558 2.643917 9.836386 -13.432093 23.299351 -172.263901 71.893670 9.285762 -2.625068 -47.300689 -41.679966 -24.734893 16.873644 -1.257028 17.490373 11.340346 9.706543 
-0.989748 0.000000 -639.018718 0.000000 -50.757612 0.000000 -2.857742 91.707764 -0.396386 89.851801 -0.666008 179.478465 178.820076 -1.518008 166.748659 -20.811718 -3.357006 -22.413339 85.782921 13.603672 -11.088239 21.454558 0.003109 0.000018 159.589050 9.263307 -165.776286 -42.054206 -0.656181 10.442598 85.498204 -6.414906 4.361708 21.454555 -0.003098 0.000001 8.838798 -0.407018 -0.905852 7.670938 -0.753147 -1.836660 7.352981 -0.764353 -1.832093 0.642752 2.342342 -9.541382 -6.462531 9.371326 -11.368196 144.487037 -73.582543 35.017792 -1.008524 42.481137 2.763125 -65.599452 -19.057196 2.629583 9.774504 -13.336820 23.586716 -171.449988 71.771075 10.123703 0.140052 -48.914301 -42.270825 -24.756958 16.881192 -1.257853 18.076427 11.447858 9.377169 
